<svg xmlns="http://www.w3.org/2000/svg" viewBox="0 0 448.74 115.96"><defs><style>.cls-1,.cls-2{fill:#fff;}.cls-2{font-size:55.22px;font-family:BelyDisplay-Regular, Bely Display;letter-spacing:-0.08em;}.cls-3{letter-spacing:-0.02em;}.cls-4{letter-spacing:-0.02em;}.cls-5{letter-spacing:-0.04em;}.cls-6{letter-spacing:-0.03em;}.cls-7{letter-spacing:-0.02em;}.cls-8{letter-spacing:-0.03em;}.cls-9{font-size:14.88px;fill:#164cc6;font-family:Avenir-Black, Avenir;font-weight:800;letter-spacing:-0.02em;}</style></defs><g id="Layer_2" data-name="Layer 2"><g id="Layer_1-2" data-name="Layer 1"><path class="cls-1" d="M105.06,91.82A57.89,57.89,0,0,1,58,116h-1.1l-.12-24.33Z"/><path class="cls-1" d="M26,72.64V81H15.18a37.09,37.09,0,0,0,5.88-3.71A37.29,37.29,0,0,0,26,72.64Z"/><path class="cls-1" d="M10.88,91H30v17.34A58.25,58.25,0,0,1,10.75,90.85Z"/><path class="cls-1" d="M39,91.19l8,.18v.46q-.11,11.57-.21,23.11A55.1,55.1,0,0,1,39,112.83Z"/><path class="cls-1" d="M116,58a57.7,57.7,0,0,1-5.42,24.5C103.78,83.91,88,85.6,74,74.62,55.91,60.36,57.78,38,57.93,36H47v2.4c.29,14.2.16,28.4,0,42.6H39V36H28.45c1.63,16.85-4.54,31.83-16.08,38.21a27,27,0,0,1-9.09,3.05A58,58,0,1,1,116,58Z"/><path class="cls-1" d="M67,98H56.82c0-1.91,0-3.82,0-5.73A57.22,57.22,0,0,0,67,93.35C67,94.9,67,96.45,67,98Z"/><path class="cls-1" d="M60,81H70.82A36.34,36.34,0,0,1,65,77.28a35.58,35.58,0,0,1-5-4.64Z"/><text class="cls-2" transform="translate(120.35 66.68)">w<tspan class="cls-3" x="46.11" y="0">eb</tspan><tspan class="cls-4" x="107.4" y="0">g</tspan><tspan class="cls-5" x="137.55" y="0">a</tspan><tspan class="cls-6" x="165.44" y="0">t</tspan><tspan class="cls-7" x="187.69" y="0">e</tspan><tspan class="cls-8" x="214.42" y="0">h</tspan><tspan class="cls-7" x="249.04" y="0">elp</tspan></text><rect class="cls-1" x="268.7" y="71.74" width="133.45" height="23.01"/><text class="cls-9" transform="translate(281.61 87.97)">a website guide</text></g></g></svg>